<svg width="64" height="64" viewBox="0 0 64 64" fill="none" xmlns="http://www.w3.org/2000/svg">
<rect width="64" height="64" rx="16" fill="url(#paint0_linear_514_31)"/>
<path d="M22.4 14.125C22.4 13.8001 22.2736 13.4886 22.0485 13.2588C21.8235 13.0291 21.5183 12.9 21.2 12.9C20.8817 12.9 20.5765 13.0291 20.3515 13.2588C20.1264 13.4886 20 13.8001 20 14.125V19.025C20 19.9997 20.3793 20.9344 21.0544 21.6236C21.7295 22.3128 22.6452 22.7 23.6 22.7H24.104L20.6 30.246C20.1815 31.148 19.9853 32.1407 20.0284 33.1377C20.0715 34.1347 20.3526 35.1059 20.8472 35.9668L29.1584 50.4389C29.4492 50.9445 29.8644 51.3637 30.3628 51.655C30.8613 51.9463 31.4257 52.0996 32 52.0996C32.5743 52.0996 33.1387 51.9463 33.6372 51.655C34.1356 51.3637 34.5508 50.9445 34.8416 50.4389L43.1528 35.9668C43.6471 35.1057 43.9277 34.1344 43.9704 33.1374C44.0131 32.1404 43.8164 31.1478 43.3976 30.246L39.896 22.7H40.4C41.3548 22.7 42.2705 22.3128 42.9456 21.6236C43.6207 20.9344 44 19.9997 44 19.025V14.125C44 13.8001 43.8736 13.4886 43.6485 13.2588C43.4235 13.0291 43.1183 12.9 42.8 12.9C42.4817 12.9 42.1765 13.0291 41.9515 13.2588C41.7264 13.4886 41.6 13.8001 41.6 14.125V19.025C41.6 19.3499 41.4736 19.6615 41.2485 19.8912C41.0235 20.121 40.7183 20.25 40.4 20.25H23.6C23.2817 20.25 22.9765 20.121 22.7515 19.8912C22.5264 19.6615 22.4 19.3499 22.4 19.025V14.125ZM37.2416 22.7L41.2304 31.2971C41.481 31.838 41.5984 32.4331 41.5725 33.0309C41.5466 33.6287 41.3781 34.2109 41.0816 34.7271L33.2 48.452V34.6217C33.6575 34.3521 34.0151 33.9358 34.2173 33.4375C34.4195 32.9393 34.455 32.3868 34.3182 31.8659C34.1815 31.3449 33.8802 30.8846 33.461 30.5562C33.0419 30.2279 32.5283 30.05 32 30.05C31.4717 30.05 30.9581 30.2279 30.539 30.5562C30.1198 30.8846 29.8185 31.3449 29.6818 31.8659C29.545 32.3868 29.5805 32.9393 29.7827 33.4375C29.9849 33.9358 30.3425 34.3521 30.8 34.6217V48.452L22.9184 34.7295C22.6219 34.2134 22.4534 33.6311 22.4275 33.0334C22.4016 32.4356 22.519 31.8404 22.7696 31.2995L26.7584 22.7H37.2416V22.7Z" fill="#00A7EF"/>
<defs>
<linearGradient id="paint0_linear_514_31" x1="0" y1="0" x2="64" y2="64" gradientUnits="userSpaceOnUse">
<stop stop-color="#1A002F"/>
<stop offset="1" stop-color="#001937"/>
</linearGradient>
</defs>
</svg>
