<svg width="32" height="32" viewBox="0 0 32 32" fill="none" xmlns="http://www.w3.org/2000/svg">
<g id="Icons/mark_email_read">
<mask id="mask0_722_227" style="mask-type:alpha" maskUnits="userSpaceOnUse" x="0" y="0" width="32" height="32">
<rect id="Bounding box" width="32" height="32" fill="#D9D9D9"/>
</mask>
<g mask="url(#mask0_722_227)">
<path id="mark_email_read" d="M5.33329 7.99992L16 14.6666L26.6666 7.99992H5.33329ZM5.33329 26.6666C4.59996 26.6666 3.97218 26.4055 3.44996 25.8833C2.92774 25.361 2.66663 24.7333 2.66663 23.9999V7.99992C2.66663 7.26659 2.92774 6.63881 3.44996 6.11659C3.97218 5.59436 4.59996 5.33325 5.33329 5.33325H26.6666C27.4 5.33325 28.0277 5.59436 28.55 6.11659C29.0722 6.63881 29.3333 7.26659 29.3333 7.99992V13.7999L26.6666 16.4666V10.6666L16.7 16.8999C16.6333 16.9444 16.4 17.011 16 17.0999C15.8888 17.0999 15.7722 17.0833 15.65 17.0499C15.5277 17.0166 15.4111 16.9666 15.3 16.8999L5.33329 10.6666V23.9999H12.2L14.8666 26.6666H5.33329ZM21.2666 25.5999L27.8666 18.9999C28.1111 18.7555 28.4222 18.6333 28.8 18.6333C29.1777 18.6333 29.4889 18.7555 29.7333 18.9999C29.9777 19.2444 30.1 19.5555 30.1 19.9333C30.1 20.311 29.9777 20.6221 29.7333 20.8666L22.2 28.3999C21.9333 28.6666 21.6222 28.7999 21.2666 28.7999C20.9111 28.7999 20.6 28.6666 20.3333 28.3999L16.5333 24.5999C16.2888 24.3555 16.1666 24.0444 16.1666 23.6666C16.1666 23.2888 16.2888 22.9777 16.5333 22.7333C16.7777 22.4888 17.0888 22.3666 17.4666 22.3666C17.8444 22.3666 18.1555 22.4888 18.4 22.7333L21.2666 25.5999Z" fill="#00A7EF"/>
</g>
</g>
</svg>
