<svg width="32" height="33" viewBox="0 0 32 33" fill="none" xmlns="http://www.w3.org/2000/svg">
<g id="Icons/open_in_new">
<mask id="mask0_723_723" style="mask-type:alpha" maskUnits="userSpaceOnUse" x="0" y="0" width="32" height="33">
<rect id="Bounding box" y="0.5" width="32" height="32" fill="#D9D9D9"/>
</mask>
<g mask="url(#mask0_723_723)">
<path id="open_in_new" d="M6.2222 28.5C5.6222 28.5 5.10183 28.2796 4.6611 27.8389C4.22037 27.3982 4 26.8778 4 26.2778V6.7222C4 6.1222 4.22037 5.60183 4.6611 5.1611C5.10183 4.72037 5.6222 4.5 6.2222 4.5H14.4222C14.737 4.5 15.0009 4.60686 15.2139 4.82057C15.4268 5.03428 15.5333 5.29909 15.5333 5.615C15.5333 5.93091 15.4268 6.19442 15.2139 6.40553C15.0009 6.61665 14.737 6.7222 14.4222 6.7222H6.2222V26.2778H25.7778V18.0778C25.7778 17.763 25.8847 17.4991 26.0984 17.2861C26.3121 17.0732 26.5769 16.9667 26.8928 16.9667C27.2087 16.9667 27.4722 17.0732 27.6833 17.2861C27.8944 17.4991 28 17.763 28 18.0778V26.2778C28 26.8778 27.7796 27.3982 27.3389 27.8389C26.8982 28.2796 26.3778 28.5 25.7778 28.5H6.2222ZM25.7778 8.29997L13.5778 20.5C13.3629 20.7148 13.1037 20.8185 12.8 20.8111C12.4963 20.8037 12.237 20.6926 12.0222 20.4778C11.8074 20.263 11.7 20.0037 11.7 19.7C11.7 19.3963 11.8074 19.1371 12.0222 18.9222L24.2222 6.7222H18.8666C18.5518 6.7222 18.2879 6.61535 18.075 6.40163C17.862 6.18792 17.7555 5.92311 17.7555 5.6072C17.7555 5.29129 17.862 5.02778 18.075 4.81667C18.2879 4.60556 18.5518 4.5 18.8666 4.5H28V13.6334C28 13.9482 27.8931 14.2121 27.6794 14.425C27.4657 14.638 27.2009 14.7445 26.885 14.7445C26.5691 14.7445 26.3056 14.638 26.0945 14.425C25.8834 14.2121 25.7778 13.9482 25.7778 13.6334V8.29997Z" fill="url(#paint0_linear_723_723)"/>
</g>
</g>
<defs>
<linearGradient id="paint0_linear_723_723" x1="4" y1="4.5" x2="28" y2="28.5" gradientUnits="userSpaceOnUse">
<stop stop-color="#9747FF"/>
<stop offset="1" stop-color="#05B4FF"/>
</linearGradient>
</defs>
</svg>
