<svg width="48" height="48" viewBox="0 0 48 48" fill="none" xmlns="http://www.w3.org/2000/svg">
<circle cx="24" cy="24" r="24" fill="#7200DF"/>
<path d="M18.5143 14.4C18.5143 14.2181 18.4421 14.0437 18.3135 13.9151C18.1849 13.7865 18.0105 13.7143 17.8286 13.7143C17.6468 13.7143 17.4724 13.7865 17.3438 13.9151C17.2152 14.0437 17.1429 14.2181 17.1429 14.4V17.1429C17.1429 17.6884 17.3596 18.2117 17.7454 18.5975C18.1312 18.9833 18.6545 19.2 19.2001 19.2H19.4881L17.4858 23.424C17.2466 23.9289 17.1345 24.4846 17.1591 25.0427C17.1838 25.6008 17.3444 26.1444 17.627 26.6263L22.3763 34.7273C22.5425 35.0103 22.7797 35.245 23.0645 35.4081C23.3494 35.5711 23.6719 35.6569 24.0001 35.6569C24.3283 35.6569 24.6507 35.5711 24.9356 35.4081C25.2204 35.245 25.4577 35.0103 25.6238 34.7273L30.3731 26.6263C30.6555 26.1443 30.8159 25.6006 30.8403 25.0425C30.8647 24.4844 30.7523 23.9288 30.513 23.424L28.5121 19.2H28.8001C29.3456 19.2 29.8689 18.9833 30.2547 18.5975C30.6405 18.2117 30.8572 17.6884 30.8572 17.1429V14.4C30.8572 14.2181 30.785 14.0437 30.6564 13.9151C30.5278 13.7865 30.3533 13.7143 30.1715 13.7143C29.9896 13.7143 29.8152 13.7865 29.6866 13.9151C29.558 14.0437 29.4858 14.2181 29.4858 14.4V17.1429C29.4858 17.3247 29.4135 17.4991 29.2849 17.6277C29.1563 17.7563 28.9819 17.8286 28.8001 17.8286H19.2001C19.0182 17.8286 18.8438 17.7563 18.7152 17.6277C18.5866 17.4991 18.5143 17.3247 18.5143 17.1429V14.4ZM26.9953 19.2L29.2746 24.0123C29.4178 24.3151 29.4849 24.6483 29.4701 24.9829C29.4552 25.3175 29.3589 25.6434 29.1895 25.9323L24.6858 33.6151V25.8734C24.9472 25.7224 25.1516 25.4894 25.2671 25.2105C25.3826 24.9316 25.4029 24.6223 25.3248 24.3307C25.2466 24.0391 25.0744 23.7814 24.8349 23.5977C24.5954 23.4139 24.302 23.3143 24.0001 23.3143C23.6982 23.3143 23.4047 23.4139 23.1652 23.5977C22.9257 23.7814 22.7535 24.0391 22.6754 24.3307C22.5972 24.6223 22.6175 24.9316 22.733 25.2105C22.8486 25.4894 23.0529 25.7224 23.3143 25.8734V33.6151L18.8106 25.9337C18.6412 25.6448 18.5449 25.3189 18.5301 24.9843C18.5152 24.6497 18.5823 24.3165 18.7255 24.0137L21.0049 19.2H26.9953Z" fill="white"/>
</svg>
